# xmcd
#
# Track frame offsets: 
#        150
#        14456
#        28547
#        43409
#        56132
#        68299
#        79285
#        95125
#        110483
#        128573
#        142160
#        159137
#
# Disc length: 2359 seconds
#
# Revision: 0
# Processed by: cddbd v1.5.1PL2 Copyright (c) Steve Scherf et al.
# Submitted via: ExactAudioCopy v0.95b4
#
DISCID=a109350c
DTITLE=Various Artist - Everybody Wants to be a Cowboy
DYEAR=1993
DGENRE=Classic Country
TTITLE0=Super "Boys" - Everybody Wants to be a Cowboy
TTITLE1=Troy Aikman - Oklahoma Nights
TTITLE2=Soc Swicegood - Farewell
TTITLE3=Walt Garrison - Everything's Gone Wrong
TTITLE4=Joe Avezzano - Ship My Body Back to Texas
TTITLE5=Walt Garrison and Randy White - Hell of a Lot Together
TTITLE6=Doc Swicegood and Con Hunley - Feel Again
TTITLE7=Walt Garrison - The Rodeo's Over
TTITLE8=Randy White - Don't Fan The Flame
TTITLE9=Joe Avezzano - What I Couldn't See
TTITLE10=Stadium - Everybody Wants to be a Cowboy
TTITLE11=Jay Novacek - Emmitt, My Rodeo Star
EXTD=
EXTT0=
EXTT1=
EXTT2=
EXTT3=
EXTT4=
EXTT5=
EXTT6=
EXTT7=
EXTT8=
EXTT9=
EXTT10=
EXTT11=
PLAYORDER=
